<svg height="472pt" viewBox="-3 0 471 472" width="472pt" xmlns="http://www.w3.org/2000/svg"><g fill="#97a6ad"><path d="m168.5 336-12.800781-18.457031 24-61.542969 12.800781 18.457031zm0 0"/><path d="m232.5 336-24-61.542969 12.800781-18.457031 24 61.542969zm0 0"/><path d="m344.5 336-12.800781-18.457031 24-61.542969 12.800781 18.457031zm0 0"/><path d="m408.5 336-24-61.542969 12.800781-18.457031 24 61.542969zm0 0"/></g><path d="m.5 312h464v96h-464zm0 0" fill="#f9bb4b"/><path d="m.5 408h32v64h-32zm0 0" fill="#ad6327"/><path d="m432.5 408h32v64h-32zm0 0" fill="#ad6327"/><path d="m48.5 24h368v32h-368zm0 0" fill="#97a6ad"/><path d="m464.5 104h-464l32-48h400zm0 0" fill="#cfdfe8"/><path d="m120.5 0h16v24h-16zm0 0" fill="#26829e"/><path d="m328.5 0h16v24h-16zm0 0" fill="#26829e"/><path d="m424.5 360c-19.199219 0-19.199219 16-38.449219 16-19.246093 0-19.199219-16-38.445312-16-19.25 0-19.203125 16-38.402344 16s-19.199219-16-38.398437-16c-19.199219 0-19.199219 16-38.402344 16-19.199219 0-19.199219-16-38.398438-16-19.199218 0-19.199218 16-38.398437 16-19.203125 0-19.203125-16-38.402344-16s-19.199219 16-38.398437 16c-19.199219 0-19.105469-16-38.304688-16v-48h384zm0 0" fill="#dd3e46"/><path d="m16.5 280h80c0 17.671875-14.328125 32-32 32h-16c-17.671875 0-32-14.328125-32-32zm0 0" fill="#bdcad1"/><path d="m16.5 248h80c0 17.671875-14.328125 32-32 32h-16c-17.671875 0-32-14.328125-32-32zm0 0" fill="#cfdfe8"/><path d="m16.5 216h80c0 17.671875-14.328125 32-32 32h-16c-17.671875 0-32-14.328125-32-32zm0 0" fill="#bdcad1"/><path d="m16.5 184h80c0 17.671875-14.328125 32-32 32h-16c-17.671875 0-32-14.328125-32-32zm0 0" fill="#cfdfe8"/><path d="m128.5 136c17.671875 0 32-14.328125 32-32h-64c0 17.671875 14.328125 32 32 32zm0 0" fill="#fcf05a"/><path d="m336.5 136c17.671875 0 32-14.328125 32-32h-64c0 17.671875 14.328125 32 32 32zm0 0" fill="#fcf05a"/><path d="m232.5 136c17.671875 0 32-14.328125 32-32h-64c0 17.671875 14.328125 32 32 32zm0 0" fill="#fcf05a"/><path d="m160.5 216h80c8.835938 0 16 7.164062 16 16v16h-112v-16c0-8.835938 7.164062-16 16-16zm0 0" fill="#cfdfe8"/><path d="m144.5 248h112v16c0 8.835938-7.164062 16-16 16h-80c-8.835938 0-16-7.164062-16-16zm0 0" fill="#cfdfe8"/><path d="m200.5 184c8.835938 0 16 7.164062 16 16v16h-32v-16c0-8.835938 7.164062-16 16-16zm0 0" fill="#dd3e46"/><path d="m120.5 240h160v16h-160zm0 0" fill="#97a6ad"/><path d="m336.5 216h80c8.835938 0 16 7.164062 16 16v16h-112v-16c0-8.835938 7.164062-16 16-16zm0 0" fill="#cfdfe8"/><path d="m320.5 248h112v16c0 8.835938-7.164062 16-16 16h-80c-8.835938 0-16-7.164062-16-16zm0 0" fill="#cfdfe8"/><path d="m376.5 184c8.835938 0 16 7.164062 16 16v16h-32v-16c0-8.835938 7.164062-16 16-16zm0 0" fill="#dd3e46"/><path d="m296.5 240h160v16h-160zm0 0" fill="#97a6ad"/></svg>