<?xml version="1.0" encoding="iso-8859-1"?>
<!-- Generator: Adobe Illustrator 19.0.0, SVG Export Plug-In . SVG Version: 6.00 Build 0)  -->
<svg xmlns="http://www.w3.org/2000/svg" xmlns:xlink="http://www.w3.org/1999/xlink" version="1.1" id="Layer_1" x="0px" y="0px" viewBox="0 0 512 512" style="enable-background:new 0 0 512 512;" xml:space="preserve" width="512" height="512">
<g>
	<g>
		<g>
			<g>
				<g>
					<g>
						<path style="fill:#F43B45;" d="M502.92,284.576l-19.24-14.51c-2.075-1.565-3.868-3.473-5.301-5.642l-59.778-90.495        c-4.225-6.395-11.377-10.243-19.042-10.243h-97.165v206.846h198.139c6.333,0,11.467-5.134,11.467-11.467v-56.268        C512,295.635,508.638,288.888,502.92,284.576z"/>
						<path style="fill:#D82B2B;" d="M502.92,284.576l-19.24-14.51c-2.075-1.565-3.868-3.474-5.301-5.642l-59.778-90.495        c-4.224-6.395-11.377-10.243-19.042-10.243h-41.335l66.544,100.738c1.433,2.169,3.225,4.077,5.301,5.642l19.24,14.51        c5.718,4.312,9.08,11.059,9.08,18.221v67.735h42.144c6.333,0,11.467-5.134,11.467-11.467v-56.268        C512,295.635,508.638,288.888,502.92,284.576z"/>
						<g>
							<path style="fill:#EDEDED;" d="M0,102.238V357.8c0,7.031,5.7,12.731,12.731,12.731h313.032V102.238         c0-7.031-5.7-12.731-12.731-12.731H12.731C5.7,89.507,0,95.206,0,102.238z"/>
						</g>
						<path style="fill:#D6D6D6;" d="M313.032,89.507h-40.193v281.025h52.924V102.238C325.763,95.206,320.063,89.507,313.032,89.507        z"/>
						<path style="fill:#75CFF2;" d="M436.59,255.79l-36.971-55.969c-2.486-3.763-6.694-6.027-11.204-6.027h-15.92        c-7.164,0-12.972,5.808-12.972,12.972v56.173c0,7.164,5.808,12.972,12.972,12.972h53.271        C436.102,275.912,442.287,264.415,436.59,255.79z"/>
						<g>
							<circle style="fill:#1E4751;" cx="410.685" cy="373.598" r="48.895"/>
							<path style="fill:#EDEDED;" d="M410.685,392.595c-10.475,0-18.997-8.522-18.997-18.997s8.522-18.997,18.997-18.997         c10.475,0,18.997,8.522,18.997,18.997S421.16,392.595,410.685,392.595z"/>
							<circle style="fill:#1E4751;" cx="100.579" cy="373.598" r="48.895"/>
							<path style="fill:#EDEDED;" d="M100.579,392.595c-10.475,0-18.997-8.522-18.997-18.997s8.522-18.997,18.997-18.997         s18.997,8.522,18.997,18.997S111.054,392.595,100.579,392.595z"/>
						</g>
						<path style="fill:#F2CA20;" d="M478.745,307.174v8.856c0,12.933,10.485,23.418,23.418,23.418H512v-36.69        c0-0.139-0.013-0.276-0.015-0.415h-28.409C480.908,302.343,478.745,304.506,478.745,307.174z"/>
					</g>
				</g>
			</g>
		</g>
		<g>
			<g>
				<g>
					<g>
						<g>
							<g>
								<g>
									<g>
										<path style="fill:#EF8229;" d="M162.882,174.468c-4.267,0-7.726-3.459-7.726-7.726v-12.6c0-4.268,3.459-7.726,7.726-7.726            s7.726,3.459,7.726,7.726v12.6C170.608,171.009,167.149,174.468,162.882,174.468z"/>
									</g>
								</g>
							</g>
						</g>
					</g>
				</g>
			</g>
		</g>
	</g>
	<g>
		<g>
			<path style="fill:#FF9C43;" d="M162.882,165.711c-53.95,0-97.685,45.627-97.685,101.91h195.37     C260.566,211.338,216.831,165.711,162.882,165.711z"/>
		</g>
		<g>
			<path style="fill:#EF8229;" d="M272.723,279.32H53.041c-4.369,0-7.91-3.541-7.91-7.91v-7.578c0-4.369,3.541-7.91,7.91-7.91     h219.682c4.369,0,7.91,3.541,7.91,7.91v7.578C280.633,275.779,277.091,279.32,272.723,279.32z"/>
		</g>
	</g>
</g>















</svg>
