<?xml version="1.0" encoding="iso-8859-1"?>
<!-- Generator: Adobe Illustrator 19.0.0, SVG Export Plug-In . SVG Version: 6.00 Build 0)  -->
<svg version="1.1" id="Capa_1" xmlns="http://www.w3.org/2000/svg" xmlns:xlink="http://www.w3.org/1999/xlink" x="0px" y="0px"
	 viewBox="0 0 480.024 480.024" style="enable-background:new 0 0 480.024 480.024;" xml:space="preserve">
<path style="fill:#464343;" d="M320.012,344.424v39.6l-152,24v64h224v-48C392.012,382.938,360.891,348.532,320.012,344.424z"/>
<path style="fill:#1DB59E;" d="M312.012,344.024h-144c-44.183,0-80,35.817-80,80v48h80v-64l152-24v-39.6
	C317.38,344.168,314.716,344.024,312.012,344.024z"/>
<path style="fill:#1DB59E;" d="M264.012,200.024l-96-16v56C168.012,240.024,256.012,240.024,264.012,200.024z"/>
<path style="fill:#ECC19C;" d="M264.012,200.024c-8,40-96,40-96,40v48c0,39.764,32.236,72,72,72s72-32.236,72-72v-48
	C280.012,240.024,264.012,200.024,264.012,200.024z"/>
<path style="fill:#1DB59E;" d="M264.012,200.024c0,0,16,40,48,40v-32L264.012,200.024z"/>
<path style="fill:#fff;" d="M320.012,168.024l16-40h8c22.091,0.078,40.063-17.767,40.142-39.858s-17.767-40.063-39.858-40.142
	c-12.857-0.046-24.953,6.092-32.508,16.495c0.128-1.488,0.224-2.976,0.224-4.496c-0.011-28.719-23.3-51.991-52.019-51.981
	c-20.725,0.008-39.467,12.322-47.701,31.341c-9.19-20.089-32.926-28.925-53.015-19.734s-28.924,32.926-19.734,53.015
	c6.525,14.263,20.784,23.397,36.469,23.36v48"/>
<circle style="fill:#E6E6E6;" cx="204.012" cy="436.024" r="12"/>
<g>
	<path style="fill:#DFB28B;" d="M160.012,280.024h8v-32h-8c-8.837,0-16,7.163-16,16C144.012,272.86,151.175,280.024,160.012,280.024
		z"/>
	<path style="fill:#DFB28B;" d="M320.012,248.024h-8v32h8c8.837,0,16-7.163,16-16C336.012,255.187,328.848,248.024,320.012,248.024z
		"/>
</g>
<path style="fill:#B3B3B3;" d="M168.012,184.024l8-40l144,24l-8,40L168.012,184.024z"/>
<path d="M80.012,424.024v48c0,4.418,3.582,8,8,8h304c4.418,0,8-3.582,8-8v-48c-0.06-44.157-32.811-81.444-76.592-87.2
	c-1.062-0.519-2.226-0.792-3.408-0.8c-0.543,0.05-1.079,0.157-1.6,0.32c-2.12-0.152-4.232-0.32-6.4-0.32h-8.152
	c10.471-13.812,16.143-30.667,16.152-48c13.255,0,24-10.745,24-24c0-13.255-10.745-24-24-24v-31.2l7.696-38.496l13.72-34.304h2.584
	c26.509,0.095,48.077-21.318,48.172-47.828c0.095-26.509-21.318-48.077-47.828-48.172c-9.085-0.033-17.993,2.514-25.688,7.343
	c-6.984-32.393-38.904-52.991-71.297-46.008c-14.221,3.066-26.843,11.194-35.519,22.872c-17.55-19.869-47.883-21.749-67.752-4.199
	s-21.749,47.883-4.199,67.752c7.302,8.267,17.23,13.767,28.111,15.575v39.864l-7.84,39.2c-0.02,0.282-0.02,0.566,0,0.848
	c0,0.248-0.16,0.472-0.16,0.72v56c-13.255,0-24,10.745-24,24c0,13.255,10.745,24,24,24c0.009,17.333,5.681,34.188,16.152,48h-8.152
	C119.422,336.049,80.052,375.434,80.012,424.024L80.012,424.024z M160.012,272.024c-4.418,0-8-3.582-8-8s3.582-8,8-8V272.024z
	 M321.26,391.92c3.886-0.614,6.749-3.962,6.752-7.896V353.88c32.723,7.489,55.944,36.575,56,70.144v40h-32v-24c0-4.418-3.582-8-8-8
	s-8,3.582-8,8v24h-160v-49.168L321.26,391.92z M304.012,230.84c-10.378-3.705-19.187-10.832-24.976-20.208l24.976,4.168V230.84z
	 M305.684,198.84l-128.208-21.344l4.864-24.304l128.2,21.36L305.684,198.84z M252.7,206.224c-12.552,18.48-53.4,24.44-76.688,25.552
	v-38.304L252.7,206.224z M328.012,264.024c0,4.418-3.582,8-8,8v-16C324.43,256.024,328.012,259.605,328.012,264.024z
	 M144.012,56.024c-0.032-17.642,14.243-31.97,31.886-32.002c12.54-0.023,23.934,7.294,29.13,18.706
	c1.363,2.83,4.219,4.637,7.36,4.656c3.15-0.033,5.988-1.912,7.248-4.8c9.658-22.299,35.563-32.547,57.862-22.89
	c16.08,6.964,26.495,22.806,26.514,40.33c0,1.288-0.096,2.552-0.192,3.824c-0.34,4.405,2.955,8.252,7.36,8.592
	c2.742,0.212,5.4-1,7.04-3.208c5.961-8.308,15.567-13.227,25.792-13.208c17.673,0,32,14.327,32,32s-14.327,32-32,32h-8
	c-3.274-0.001-6.218,1.992-7.432,5.032l-13.6,34.016l-130.968-21.824V96.024c0-4.418-3.582-8-8-8
	C158.339,88.024,144.012,73.697,144.012,56.024L144.012,56.024z M176.012,288.024v-40.2c20.048-0.848,68.872-5.456,88.384-30.224
	c8.598,14.891,22.911,25.62,39.616,29.696v40.728c0,35.346-28.654,64-64,64S176.012,323.37,176.012,288.024L176.012,288.024z
	 M192.012,352.024h0.16c28.311,21.377,67.369,21.377,95.68,0h0.16h24v25.168l-145.248,22.936c-3.886,0.614-6.749,3.962-6.752,7.896
	v56h-24v-32c0-4.418-3.582-8-8-8c-4.418,0-8,3.582-8,8v32h-24v-40c0.044-39.746,32.254-71.956,72-72H192.012z"/>
<path d="M208.012,280.024c4.418,0,8-3.582,8-8v-8c0-4.418-3.582-8-8-8s-8,3.582-8,8v8
	C200.012,276.442,203.594,280.024,208.012,280.024z"/>
<path d="M272.012,280.024c4.418,0,8-3.582,8-8v-8c0-4.418-3.582-8-8-8s-8,3.582-8,8v8
	C264.012,276.442,267.594,280.024,272.012,280.024z"/>
<path d="M201.612,307.224c-2.651,3.535-1.935,8.549,1.6,11.2h0c21.844,16.246,51.756,16.246,73.6,0
	c3.532-2.654,4.244-7.669,1.59-11.201c-2.651-3.528-7.658-4.243-11.19-1.599c-16.148,12.001-38.252,12.001-54.4,0
	C209.277,302.973,204.263,303.689,201.612,307.224L201.612,307.224z"/>
<path d="M204.012,448.024c6.627,0,12-5.373,12-12s-5.373-12-12-12s-12,5.373-12,12S197.384,448.024,204.012,448.024z
	 M204.012,432.024c2.209,0,4,1.791,4,4s-1.791,4-4,4s-4-1.791-4-4S201.803,432.024,204.012,432.024z"/>
<g>
</g>
<g>
</g>
<g>
</g>
<g>
</g>
<g>
</g>
<g>
</g>
<g>
</g>
<g>
</g>
<g>
</g>
<g>
</g>
<g>
</g>
<g>
</g>
<g>
</g>
<g>
</g>
<g>
</g>
</svg>
