<?xml version="1.0" encoding="iso-8859-1"?>
<!-- Generator: Adobe Illustrator 18.1.1, SVG Export Plug-In . SVG Version: 6.00 Build 0)  -->
<svg version="1.1" id="Capa_1" xmlns="http://www.w3.org/2000/svg" xmlns:xlink="http://www.w3.org/1999/xlink" x="0px" y="0px"
	 viewBox="0 0 58.344 58.344" style="enable-background:new 0 0 58.344 58.344;" xml:space="preserve">
<g>
	<g>
		<path style="fill:#010002;" d="M53.145,32.483c-0.045-0.25-0.102-0.506-0.189-0.771c-2.24-6.826-6.417-12.234-12.104-16.545
			c-2.156-1.635-5.548-0.306-6.771,1.813c-0.606,1.051-0.766,2.105-0.601,3.096c-0.866,3.995-3.345,6.635-7.54,6.966
			c-1.695,0.134-2.43,1.705-2.197,2.989l-5.18,2.667H7.623v2.275h11.906v-1.104l4.959-2.554c0.361,0.278,0.84,0.439,1.451,0.393
			c5.015-0.397,8.925-2.945,10.938-7.146c2.977,2.564,5.286,6.013,6.503,9.716c0.02,0.063,0.046,0.117,0.068,0.179
			c-2.293,1.532-4.275,4.061-4.275,8.241c0,4.368,0,6.243,0,6.972l2.108-0.059c-0.011,1.921,0.146,3.868,0.489,5.834
			c0.297,1.7,1.774,2.899,3.443,2.899c0.199,0,0.401-0.018,0.606-0.054c1.902-0.332,3.176-2.145,2.844-4.048
			c-1.171-6.699,0.217-12.86,4.124-18.31C53.537,34.891,53.626,33.578,53.145,32.483z"/>
		<path style="fill:#010002;" d="M4.902,35.874h20.265v19.799H4.902L4.902,35.874z"/>
		<path style="fill:#010002;" d="M34.795,14.768c1.584-1.51,1.584-3.959,0-5.47l-5.73,5.47
			C30.647,16.278,33.213,16.278,34.795,14.768z"/>
		<path style="fill:#010002;" d="M23.199,8.423l5.707,5.446l5.171-4.933l-5.778-5.514c0.153-0.902-0.133-1.861-0.862-2.558
			c-1.208-1.152-3.167-1.152-4.375,0c-0.513,0.49-0.807,1.11-0.884,1.75c-0.67,0.073-1.319,0.353-1.832,0.843
			c-1.21,1.153-1.21,3.021,0,4.174C21.119,8.371,22.202,8.632,23.199,8.423z"/>
	</g>
</g>
<g>
</g>
<g>
</g>
<g>
</g>
<g>
</g>
<g>
</g>
<g>
</g>
<g>
</g>
<g>
</g>
<g>
</g>
<g>
</g>
<g>
</g>
<g>
</g>
<g>
</g>
<g>
</g>
<g>
</g>
</svg>
