<svg height="511pt" viewBox="0 -60 511.998 511" width="511pt" xmlns="http://www.w3.org/2000/svg"><path d="m340.761719 63.246094h82.332031l39.847656 125.59375c2.613282 8.238281 10.265625 13.839844 18.910156 13.839844h4.699219c9.914063 0 17.949219 8.035156 17.949219 17.949218v94.125c0 2.1875-1.773438 3.960938-3.960938 3.960938h-159.777343zm0 0" fill="#efe2dd"/><path d="m504.496094 220.632812v94.125c0 2.1875-1.773438 3.960938-3.960938 3.960938h-17.132812v-83.8125c0-9.914062-8.039063-17.949219-17.949219-17.949219h-4.699219c-8.644531 0-16.296875-5.601562-18.914062-13.832031l-36.589844-129.609375c-1.933594-6.109375-7.613281-10.265625-14.023438-10.265625h21.09375c6.421876 0 12.089844 4.15625 14.035157 10.265625l36.59375 115.324219c2.613281 8.242187 10.253906 13.84375 18.898437 13.84375h4.699219c9.914063 0 17.949219 8.035156 17.949219 17.949218zm0 0" fill="#e1d3ce"/><path d="m340.761719 318.714844h-311.421875c-2.1875 0-3.960938-1.773438-3.960938-3.960938v-302.792968c0-2.1875 1.773438-3.960938 3.960938-3.960938h307.457031c2.1875 0 3.964844 1.773438 3.964844 3.960938zm0 0" fill="#80cf00"/><path d="m340.761719 11.957031v306.757813h-20v-310.71875h16.039062c2.191407 0 3.960938 1.78125 3.960938 3.960937zm0 0" fill="#6db000"/><path d="m372.746094 94.761719h30.453125c2.277343 0 4.265625 1.53125 4.84375 3.730469l25.625 97.335937c.835937 3.175781-1.558594 6.285156-4.84375 6.285156h-56.078125c-2.765625 0-5.007813-2.242187-5.007813-5.007812v-97.335938c0-2.765625 2.242188-5.007812 5.007813-5.007812zm0 0" fill="#9ae7fd"/><path d="m428.832031 202.109375h-10.191406l-30.261719-107.351563h14.820313c2.277343 0 4.265625 1.535157 4.84375 3.734376l25.628906 97.335937c.839844 3.175781-1.554687 6.28125-4.839844 6.28125zm0 0" fill="#64dcfc"/><path d="m504.5 261.738281h-26.335938c-2.765624 0-5.007812-2.242187-5.007812-5.007812v-21.328125c0-2.765625 2.242188-5.007813 5.007812-5.007813h26.335938zm0 0" fill="#f78e3c"/><path d="m488.828125 230.394531h15.671875v31.34375h-15.671875zm0 0" fill="#e8782d"/><path d="m449.328125 337.957031c0 24.933594-20.214844 45.144531-45.148437 45.144531-24.929688 0-45.144532-20.210937-45.144532-45.144531 0-24.933593 20.214844-45.144531 45.144532-45.144531 24.933593 0 45.148437 20.210938 45.148437 45.144531zm0 0" fill="#838383"/><path d="m449.328125 337.957031c0 24.933594-20.210937 45.144531-45.148437 45.144531-10.800782 0-20.714844-3.792968-28.480469-10.121093 5.523437 2.417969 11.628906 3.753906 18.046875 3.753906 24.929687 0 45.144531-20.210937 45.144531-45.144531 0-14.132813-6.5-26.75-16.671875-35.03125 15.957031 6.964844 27.109375 22.878906 27.109375 41.398437zm0 0" fill="#706f6f"/><path d="m421.941406 337.957031c0 9.808594-7.949218 17.761719-17.761718 17.761719-9.808594 0-17.761719-7.953125-17.761719-17.761719 0-9.808593 7.953125-17.761719 17.761719-17.761719 9.8125 0 17.761718 7.953126 17.761718 17.761719zm0 0" fill="#efe2dd"/><path d="m151.964844 337.957031c0 24.933594-20.210938 45.144531-45.144532 45.144531-24.933593 0-45.144531-20.210937-45.144531-45.144531 0-24.933593 20.210938-45.144531 45.144531-45.144531 24.933594 0 45.144532 20.210938 45.144532 45.144531zm0 0" fill="#838383"/><path d="m151.964844 337.957031c0 24.933594-20.210938 45.144531-45.144532 45.144531-10.800781 0-20.71875-3.792968-28.484374-10.121093 5.527343 2.417969 11.632812 3.753906 18.050781 3.753906 24.929687 0 45.144531-20.210937 45.144531-45.144531 0-14.132813-6.5-26.75-16.671875-35.03125 15.957031 6.964844 27.105469 22.878906 27.105469 41.398437zm0 0" fill="#706f6f"/><path d="m124.582031 337.957031c0 9.808594-7.949219 17.761719-17.761719 17.761719-9.808593 0-17.761718-7.953125-17.761718-17.761719 0-9.808593 7.953125-17.761719 17.761718-17.761719 9.8125 0 17.761719 7.953126 17.761719 17.761719zm0 0" fill="#efe2dd"/><path d="m434.914062 31.269531h-94.152343v31.976563h99.691406c3.003906 0 5.214844-2.8125 4.503906-5.730469l-5.542969-22.710937c-.507812-2.074219-2.367187-3.535157-4.5-3.535157zm0 0" fill="#7ca1b1"/><path d="m440.453125 63.246094h-25.445313l-10.828124-31.976563h30.730468c2.136719 0 3.996094 1.460938 4.503906 3.535157l5.539063 22.710937c.714844 2.917969-1.496094 5.730469-4.5 5.730469zm0 0" fill="#678d98"/><path d="m389.992188 224.359375h-17.253907c-4.144531 0-7.5 3.355469-7.5 7.5 0 4.140625 3.355469 7.5 7.5 7.5h17.253907c4.140624 0 7.5-3.359375 7.5-7.5 0-4.144531-3.359376-7.5-7.5-7.5zm0 0"/><path d="m415.296875 96.585938c-1.445313-5.492188-6.417969-9.324219-12.097656-9.324219h-30.453125c-6.898438 0-12.507813 5.609375-12.507813 12.507812v97.335938c0 6.894531 5.609375 12.507812 12.507813 12.507812h56.082031c3.90625 0 7.519531-1.777343 9.90625-4.871093 2.386719-3.097657 3.183594-7.042969 2.1875-10.824219zm-40.058594 98.027343v-92.351562h26.042969l24.3125 92.351562zm0 0"/><path d="m404.179688 312.695312c-13.929688 0-25.261719 11.332032-25.261719 25.261719 0 13.929688 11.332031 25.261719 25.261719 25.261719 13.929687 0 25.261718-11.332031 25.261718-25.261719 0-13.929687-11.332031-25.261719-25.261718-25.261719zm0 35.523438c-5.65625 0-10.261719-4.605469-10.261719-10.261719s4.605469-10.261719 10.261719-10.261719c5.660156 0 10.261718 4.605469 10.261718 10.261719s-4.601562 10.261719-10.261718 10.261719zm0 0"/><path d="m81.558594 337.957031c0 13.929688 11.332031 25.261719 25.261718 25.261719 13.929688 0 25.261719-11.332031 25.261719-25.261719 0-13.929687-11.332031-25.261719-25.261719-25.261719-13.929687 0-25.261718 11.332032-25.261718 25.261719zm35.523437 0c0 5.65625-4.605469 10.261719-10.261719 10.261719s-10.261718-4.605469-10.261718-10.261719 4.605468-10.261719 10.261718-10.261719 10.261719 4.605469 10.261719 10.261719zm0 0"/><path d="m145.78125 244.707031c4.144531 0 7.5-3.359375 7.5-7.5s-3.355469-7.5-7.5-7.5h-98.734375c-4.144531 0-7.5 3.359375-7.5 7.5s3.355469 7.5 7.5 7.5zm0 0"/><path d="m486.550781 195.179688h-4.699219c-5.402343 0-10.128906-3.457032-11.761718-8.609376l-36.746094-115.820312h7.113281c3.746094 0 7.226563-1.691406 9.539063-4.640625 2.316406-2.949219 3.136718-6.726563 2.246094-10.371094l-5.542969-22.710937c-1.328125-5.449219-6.175781-9.253906-11.785157-9.253906h-86.652343v-11.8125c0-6.320313-5.140625-11.460938-11.460938-11.460938h-307.460937c-6.320313 0-11.460938 5.140625-11.460938 11.460938v35.296874c0 4.144532 3.359375 7.5 7.5 7.5s7.5-3.355468 7.5-7.5v-31.757812h300.382813v295.714844h-181.121094c-9.171875-15.488282-26.050781-25.902344-45.320313-25.902344-19.269531 0-36.144531 10.414062-45.320312 25.902344h-28.621094v-37.136719h73.359375c4.140625 0 7.5-3.359375 7.5-7.5s-3.359375-7.5-7.5-7.5h-73.359375v-178.09375c0-4.144531-3.359375-7.5-7.5-7.5s-7.5 3.355469-7.5 7.5v178.09375h-10.378906c-4.140625 0-7.5 3.359375-7.5 7.5 0 4.144531 3.359375 7.5 7.5 7.5h10.378906v40.675781c0 6.320313 5.140625 11.460938 11.460938 11.460938h26.175781c-.867187 3.777344-1.339844 7.707031-1.339844 11.742187 0 29.027344 23.617188 52.644531 52.644531 52.644531 9.421876 0 18.664063-2.519531 26.738282-7.285156 3.566406-2.109375 4.75-6.707031 2.644531-10.273437-2.105469-3.566407-6.703125-4.75-10.273437-2.644531-5.761719 3.40625-12.371094 5.203124-19.109376 5.203124-20.753906 0-37.644531-16.886718-37.644531-37.644531 0-20.757812 16.890625-37.644531 37.644531-37.644531 20.757813 0 37.644532 16.886719 37.644532 37.632812-.003906 1.875-.226563 5.65625-.808594 7.824219-.011719.042969-.019531.085938-.03125.125l-.640625 2.5625c-1 4.019531 1.445313 8.089844 5.460937 9.089844 4.019532 1 8.089844-1.441406 9.09375-5.460937l.625-2.503907c1.261719-4.769531 1.300782-10.929687 1.300782-11.625 0-4.035156-.472656-7.964843-1.335938-11.742187h194.742188c-.863282 3.78125-1.335938 7.707031-1.335938 11.742187 0 29.027344 23.617188 52.644531 52.644532 52.644531 29.027343 0 52.644531-23.613281 52.644531-52.644531 0-4.035156-.472657-7.964843-1.335938-11.742187h45.046875c6.320313 0 11.460938-5.140625 11.460938-11.460938v-94.125c.003906-14.03125-11.414063-25.449218-25.445313-25.449218zm-138.289062-156.410157h84.398437l4.144532 16.976563h-88.542969zm55.917969 336.832031c-20.753907 0-37.644532-16.886718-37.644532-37.644531 0-20.757812 16.890625-37.644531 37.644532-37.644531 20.757812 0 37.648437 16.886719 37.648437 37.644531 0 20.757813-16.890625 37.644531-37.648437 37.644531zm92.820312-121.363281h-16.34375v-16.34375h16.34375zm0-31.34375h-18.835938c-6.898437 0-12.507812 5.609375-12.507812 12.507813v21.324218c0 6.898438 5.609375 12.511719 12.507812 12.511719h18.835938v41.976563h-47.5c-9.171875-15.488282-26.050781-25.902344-45.320312-25.902344-19.269532 0-36.144532 10.414062-45.320313 25.902344h-10.597656v-240.46875h69.34375l6.875 21.671875 31.3125 98.6875c3.617187 11.410156 14.089843 19.074219 26.058593 19.074219h4.699219c5.761719 0 10.449219 4.6875 10.449219 10.449218zm0 0"/><path d="m197.789062 72.628906c0 8.128906-6.589843 14.714844-14.71875 14.714844-8.128906 0-14.71875-6.585938-14.71875-14.714844s6.589844-14.71875 14.71875-14.71875c8.128907 0 14.71875 6.589844 14.71875 14.71875zm0 0" fill="#537983"/><path d="m197.789062 72.628906c0 8.128906-6.59375 14.714844-14.71875 14.714844-6.289062 0-11.660156-3.941406-13.765624-9.5 2.363281 1.628906 5.230468 2.578125 8.316406 2.578125 8.128906 0 14.71875-6.59375 14.71875-14.71875 0-1.835937-.335938-3.597656-.953125-5.214844 3.867187 2.648438 6.402343 7.097657 6.402343 12.140625zm0 0" fill="#3e5959"/><path d="m88.628906 177.019531c0-52.160156 42.285156-94.441406 94.441406-94.441406s94.441407 42.28125 94.441407 94.441406zm0 0" fill="#7ca1b1"/><path d="m277.511719 177.019531h-18.460938c0-49.046875-37.382812-89.359375-85.210937-93.992187 3.035156-.296875 6.117187-.449219 9.230468-.449219 52.15625 0 94.441407 42.28125 94.441407 94.441406zm0 0" fill="#678d98"/><path d="m284.300781 202.109375h-202.460937c-3.304688 0-5.984375-2.679687-5.984375-5.984375v-13.121094c0-3.304687 2.679687-5.984375 5.984375-5.984375h202.457031c3.308594 0 5.988281 2.679688 5.988281 5.984375v13.121094c0 3.304688-2.679687 5.984375-5.984375 5.984375zm0 0" fill="#537983"/><path d="m284.300781 202.109375h-10.53125v-25.089844h10.53125c3.304688 0 5.984375 2.679688 5.984375 5.984375v13.121094c0 3.304688-2.679687 5.984375-5.984375 5.984375zm0 0" fill="#3e5959"/><path d="m284.734375 169.539062c-3.308594-45.421874-36.511719-82.675781-79.972656-92.132812.339843-1.542969.527343-3.140625.527343-4.78125 0-12.25-9.96875-22.214844-22.21875-22.214844s-22.21875 9.964844-22.21875 22.214844c0 1.640625.195313 3.238281.535157 4.777344-43.464844 9.453125-76.671875 46.710937-79.980469 92.136718-7.234375.234376-13.050781 6.175782-13.050781 13.464844v13.121094c0 7.4375 6.050781 13.484375 13.484375 13.484375h202.457031c7.4375 0 13.488281-6.046875 13.488281-13.484375v-13.121094c0-7.289062-5.816406-13.230468-13.050781-13.464844zm-108.882813-96.910156c0-3.980468 3.238282-7.21875 7.21875-7.21875 3.980469 0 7.21875 3.238282 7.21875 7.21875 0 .945313-.1875 1.84375-.519531 2.671875-2.214843-.140625-4.449219-.222656-6.699219-.222656s-4.484374.082031-6.699218.222656c-.332032-.828125-.519532-1.726562-.519532-2.671875zm7.21875 17.449219c45.414063 0 82.804688 35 86.621094 79.441406h-173.242187c3.8125-44.445312 41.207031-79.441406 86.621093-79.441406zm99.714844 104.53125h-199.429687v-10.089844h199.429687zm0 0"/></svg>