<svg viewBox="-32 0 512 512.00009" xmlns="http://www.w3.org/2000/svg"><path d="m138.589844 181.5v-27.410156h-16.71875c-7.949219 0-14.394532 6.445312-14.394532 14.394531v11.132813c0 7.949218 6.445313 14.394531 14.394532 14.394531h16.71875zm0 0" fill="#f4d5ba"/><path d="m326.390625 154.089844h-16.71875v39.921875h16.71875c7.949219 0 14.394531-6.445313 14.394531-14.394531v-11.132813c0-7.949219-6.445312-14.394531-14.394531-14.394531zm0 0" fill="#f4d5ba"/><path d="m257.914062 368.289062 51.578126-48.445312-20.476563-3.804688c-9.886719-1.984374-16.996094-13.449218-16.996094-23.53125v-44.925781h-95.78125v44.925781c0 10.082032-7.109375 21.546876-16.992187 23.53125l-20.476563 3.804688 51.578125 48.445312c18.988282 17.835938 48.574219 17.835938 67.566406 0zm0 0" fill="#ffe7cf"/><path d="m219.132812 311.503906c0 10.082032 3.84375 18.660156 11.148438 21.222656l49.925781 14.625 29.285157-27.507812-20.476563-3.804688c-9.882813-1.984374-16.996094-13.449218-16.996094-23.53125v-44.925781h-52.886719zm0 0" fill="#f4d5ba"/><path d="m285.171875 312.640625c-36.199219 27.054687-85.886719 27.054687-122.082031 0-2.425782-1.8125-5.550782-2.398437-8.464844-1.585937l-90.164062 25.128906c-24.210938 6.746094-42.355469 26.855468-46.589844 51.628906l-17.609375 103.101562c-1.878907 11.019532 6.609375 21.085938 17.792969 21.085938h412.152343c11.179688 0 19.671875-10.066406 17.789063-21.085938l-17.609375-103.101562c-4.234375-24.773438-22.378907-44.882812-46.589844-51.628906l-90.164063-25.128906c-2.910156-.8125-6.039062-.226563-8.460937 1.585937zm0 0" fill="#fc4e51"/><path d="m447.996094 490.914062-17.609375-103.101562c-4.234375-24.773438-22.378907-44.882812-46.589844-51.628906l-90.164063-25.128906c-2.914062-.8125-6.039062-.226563-8.460937 1.585937-16.371094 12.234375-35.5 18.917969-54.894531 20.085937l106.09375 31.074219c17.484375 4.875 30.585937 19.394531 33.644531 37.285157l18.945313 110.914062h41.246093c11.179688 0 19.671875-10.066406 17.789063-21.085938zm0 0" fill="#ea3942"/><path d="m285.585938 72.386719c-14.417969-12.414063-34.683594-23.25-61.457032-23.546875-26.769531.296875-47.035156 11.132812-61.453125 23.546875-18.390625 15.835937-28.351562 39.347656-28.351562 63.617187v58.898438c0 24.269531 30.5 88.636718 89.808593 88.636718 59.304688 0 89.804688-64.367187 89.804688-88.636718v-58.898438c0-24.269531-9.960938-47.78125-28.351562-63.617187zm0 0" fill="#ffe7cf"/><path d="m285.585938 72.386719c-8.296876-7.140625-18.53125-13.757813-30.820313-18.148438v140.664063c0 19.835937-20.386719 66.464844-60.222656 82.828125 8.898437 3.65625 18.761719 5.808593 29.585937 5.808593 59.308594 0 89.808594-64.367187 89.808594-88.636718v-58.898438c0-24.269531-9.960938-47.78125-28.351562-63.617187zm0 0" fill="#f4d5ba"/><path d="m115.125 89.082031v67.339844s14.480469-.328125 23.78125 8.878906c1.941406 1.917969 5.234375.519531 5.234375-2.207031v-43.679688h159.980469v43.679688c0 2.726562 3.292968 4.125 5.234375 2.207031 9.300781-9.207031 23.78125-8.878906 23.78125-8.878906v-67.339844c0-42.953125-34.820313-77.773437-77.773438-77.773437h-62.460937c-42.957032 0-77.777344 34.820312-77.777344 77.773437zm0 0" fill="#ffb125"/><path d="m297.101562 15.320312-59.089843-13.550781c-10.46875-2.402343-21.347657-2.359375-31.796875.128907l-55.429688 13.195312c-20.90625 4.976562-35.660156 23.652344-35.660156 45.144531v47.203125h218.007812v-46.890625c0-21.632812-14.945312-40.398437-36.03125-45.230469zm0 0" fill="#fc4e51"/><path d="m297.101562 15.320312-59.089843-13.550781c-10.46875-2.402343-21.347657-2.359375-31.796875.128907l-13.171875 3.136718 44.847656 10.28125c21.082031 4.835938 36.03125 23.601563 36.03125 45.234375v46.890625h59.210937v-46.890625c0-21.632812-14.945312-40.398437-36.03125-45.230469zm0 0" fill="#ea3942"/><path d="m307.1875 133.757812c-55-16.898437-111.117188-16.894531-166.117188 0-9.535156 2.925782-19.589843-2.699218-22.183593-12.332031-1.253907-4.660156-2.507813-9.320312-3.761719-13.984375 71.871094-26.933594 146.132812-26.9375 218.007812 0-1.253906 4.664063-2.507812 9.324219-3.761718 13.984375-2.589844 9.632813-12.644532 15.257813-22.183594 12.332031zm0 0" fill="#ea3942"/><g fill="#f3e8d7"><path d="m118.164062 321.214844-32.285156 9v117.097656h32.285156zm0 0"/><path d="m362.367188 330.210938-32.285157-9v126.101562h32.285157zm0 0"/><path d="m373.015625 512v-54.144531c-1.921875-4.023438-3.566406-7.460938-5.488281-11.492188l-33.378906-26.957031c-2.628907-2.121094-5.902344-3.277344-9.28125-3.277344h-201.476563c-3.375 0-6.652344 1.15625-9.28125 3.277344l-33.375 26.957031c-1.925781 4.027344-3.566406 7.464844-5.492187 11.492188v54.144531zm0 0"/></g><path d="m170.539062 317.027344c-12.523437 5.417968-1.867187 27.65625-1.867187 27.65625s-10.65625 22.234375 1.867187 27.65625c12.523438 5.421875 46.355469-13.269532 46.355469-13.269532v-28.773437s-33.832031-18.691406-46.355469-13.269531zm0 0" fill="#464c50"/><path d="m277.71875 317.027344c12.523438 5.417968 1.871094 27.65625 1.871094 27.65625s10.652344 22.234375-1.871094 27.65625-46.355469-13.269532-46.355469-13.269532v-28.773437s33.832031-18.691406 46.355469-13.269531zm0 0" fill="#464c50"/><path d="m231.238281 365.367188h-14.214843c-3.921876 0-7.101563-3.175782-7.101563-7.097657v-27.171875c0-3.921875 3.179687-7.101562 7.101563-7.101562h14.214843c3.917969 0 7.097657 3.179687 7.097657 7.101562v27.171875c0 3.921875-3.179688 7.097657-7.097657 7.097657zm0 0" fill="#31363b"/><path d="m330.082031 361.960938 6.289063 1.84375c10.773437 3 19.875 9.667968 25.996094 18.523437v-52.117187l-32.285157-9zm0 0" fill="#f4d5ba"/></svg>